<svg xmlns="http://www.w3.org/2000/svg" width="640" height="480">
	<path d="M388.40919494628906 240 C388.40919494628906 240,435.79681396484375 214.3333339691162,435.79681396484375 214.3333339691162 C441.25816345214844 211.44530296325684,444.79331970214844 207.1406078338623,446.3966751098633 201.41664505004883 C447.99999237060547 195.69531440734863,447.25677490234375 190.27862548828125,444.16980743408203 185.16666412353516 C444.16980743408203 185.16666412353516,432.76824951171875 166.83334350585938,432.76824951171875 166.83334350585938 C429.6784973144531 161.7239284515381,425.0772476196289 158.4166431427002,418.9617156982422 156.9166660308838 C412.8434371948242 155.4166603088379,407.0535659790039 156.11197471618652,401.59217834472656 158.9999771118164 C401.59217834472656 158.9999771118164,354.20459747314453 184.4999885559082,354.20459747314453 184.4999885559082 C354.20459747314453 184.4999885559082,354.20459747314453 133.33331108093262,354.20459747314453 133.33331108093262 C354.20459747314453 127.55727767944336,351.9470977783203 122.55729675292969,347.43492126464844 118.33333969116211 C342.91996002197266 114.11195755004883,337.5754928588867 111.99997901916504,331.4015197753906 111.99997901916504 C331.4015197753906 111.99997901916504,308.5984420776367 111.99997901916504,308.5984420776367 111.99997901916504 C302.4216842651367 111.99997901916504,297.0772171020508 114.11195755004883,292.5650405883789 118.33333969116211 C288.0500793457031 122.55729675292969,285.79540252685547 127.55727767944336,285.79540252685547 133.33331108093262 C285.79540252685547 133.33331108093262,285.79540252685547 184.4999885559082,285.79540252685547 184.4999885559082 C285.79540252685547 184.4999885559082,238.40778350830078 158.9999771118164,238.40778350830078 158.9999771118164 C232.94361114501953 156.11197471618652,227.15377807617188 155.4166603088379,221.03824615478516 156.9166660308838 C214.9199676513672 158.4166431427002,210.31871795654297 161.7239284515381,207.2317123413086 166.83334350585938 C207.2317123413086 166.83334350585938,195.83019256591797 185.16666412353516,195.83019256591797 185.16666412353516 C192.7404022216797 190.27862548828125,191.99996948242188 195.69531440734863,193.60332489013672 201.41664505004883 C195.20668029785156 207.1406078338623,198.739013671875 211.44530296325684,204.20318603515625 214.3333339691162 C204.20318603515625 214.3333339691162,251.59080505371094 240,251.59080505371094 240 C251.59080505371094 240,204.20318603515625 265.6666660308838,204.20318603515625 265.6666660308838 C198.739013671875 268.55730056762695,195.20668029785156 272.861967086792,193.60332489013672 278.5833263397217 C191.99996948242188 284.30728912353516,192.7404022216797 289.72394943237305,195.83019256591797 294.83330726623535 C195.83019256591797 294.83330726623535,207.2317123413086 313.1666564941406,207.2317123413086 313.1666564941406 C210.31871795654297 318.2786464691162,214.9199676513672 321.5833282470703,221.03824615478516 323.0833053588867 C227.15377807617188 324.5833396911621,232.94361114501953 323.8906002044678,238.40778350830078 320.9999656677246 C238.40778350830078 320.9999656677246,285.79540252685547 295.4999828338623,285.79540252685547 295.4999828338623 C285.79540252685547 295.4999828338623,285.79540252685547 346.6666603088379,285.79540252685547 346.6666603088379 C285.79540252685547 352.44269371032715,288.0500793457031 357.4427032470703,292.5650405883789 361.6666316986084 C297.0772171020508 365.8880138397217,302.4216842651367 367.99999237060547,308.5984420776367 367.99999237060547 C308.5984420776367 367.99999237060547,331.4015197753906 367.99999237060547,331.4015197753906 367.99999237060547 C337.5754928588867 367.99999237060547,342.91996002197266 365.8880138397217,347.43492126464844 361.6666316986084 C351.9470977783203 357.4427032470703,354.20459747314453 352.44269371032715,354.20459747314453 346.6666603088379 C354.20459747314453 346.6666603088379,354.20459747314453 295.4999828338623,354.20459747314453 295.4999828338623 C354.20459747314453 295.4999828338623,401.59217834472656 320.9999656677246,401.59217834472656 320.9999656677246 C407.0535659790039 323.8906002044678,412.8434371948242 324.5833396911621,418.9617156982422 323.0833053588867 C425.0772476196289 321.5833282470703,429.6784973144531 318.2786464691162,432.76824951171875 313.1666564941406 C432.76824951171875 313.1666564941406,444.16980743408203 294.83330726623535,444.16980743408203 294.83330726623535 C447.25677490234375 289.72394943237305,447.99999237060547 284.30728912353516,446.3966751098633 278.5833263397217 C444.79331970214844 272.861967086792,441.25816345214844 268.55730056762695,435.79681396484375 265.6666660308838 C435.79681396484375 265.6666660308838,388.40919494628906 240,388.40919494628906 240 Z" stroke="black" fill="transparent"/>
</svg>
