<svg xmlns="http://www.w3.org/2000/svg" viewBox="0 0 40 40">
    <path fill-rule="evenodd" fill="#a8b3b8" opacity="0.35"
        d="M0 38.59l2.83-2.83 1.41 1.41L1.41 40H0v-1.41z
            M0 1.4l2.83 2.83 1.41-1.41L1.41 0H0v1.41z
            M38.59 40l-2.83-2.83 1.41-1.41L40 38.59V40h-1.41z
            M40 1.41l-2.83 2.83-1.41-1.41L38.59 0H40v1.41z
            M20 18.6l2.83-2.83 1.41 1.41L21.41 20l2.83 2.83-1.41 1.41L20 21.41l-2.83 2.83-1.41-1.41L18.59 20l-2.83-2.83 1.41-1.41L20 18.59z"/>
</svg>
